<?xml version="1.0" encoding="UTF-8" standalone="no"?>
<svg
   xmlns:dc="http://purl.org/dc/elements/1.1/"
   xmlns:cc="http://creativecommons.org/ns#"
   xmlns:rdf="http://www.w3.org/1999/02/22-rdf-syntax-ns#"
   xmlns:svg="http://www.w3.org/2000/svg"
   xmlns="http://www.w3.org/2000/svg"
   xmlns:sodipodi="http://sodipodi.sourceforge.net/DTD/sodipodi-0.dtd"
   xmlns:inkscape="http://www.inkscape.org/namespaces/inkscape"
   inkscape:version="1.0 (4035a4fb49, 2020-05-01)"
   sodipodi:docname="SwiftLangRed.svg"
   id="svg5"
   version="1.1"
   viewBox="0 0 16 16"
   height="16"
   width="16">
  <metadata
     id="metadata11">
    <rdf:RDF>
      <cc:Work
         rdf:about="">
        <dc:format>image/svg+xml</dc:format>
        <dc:type
           rdf:resource="http://purl.org/dc/dcmitype/StillImage" />
        <dc:title></dc:title>
      </cc:Work>
    </rdf:RDF>
  </metadata>
  <defs
     id="defs9" />
  <sodipodi:namedview
     inkscape:current-layer="svg5"
     inkscape:window-maximized="1"
     inkscape:window-y="-8"
     inkscape:window-x="-8"
     inkscape:cy="8"
     inkscape:cx="8"
     inkscape:zoom="63"
     showgrid="false"
     id="namedview7"
     inkscape:window-height="1377"
     inkscape:window-width="2560"
     inkscape:pageshadow="2"
     inkscape:pageopacity="0"
     guidetolerance="10"
     gridtolerance="10"
     objecttolerance="10"
     borderopacity="1"
     bordercolor="#666666"
     pagecolor="#ffffff" />
  <rect
     fill="none"
     height="16"
     width="16"
     id="frame" />
  <path
     style="fill:#e58484;fill-opacity:1"
     id="path3"
     d="M11.56 13.1c-1.65.988-3.917 1.09-6.198.076-1.847-.814-3.38-2.24-4.362-3.869.472.408 1.022.734 1.611 1.018 2.356 1.145 4.712 1.066 6.37.003-.002 0-.003-.001-.003-.003C6.62 8.452 4.615 6.01 3.122 4.013c-.314-.325-.55-.733-.786-1.1 1.808 1.711 4.677 3.87 5.698 4.48C5.874 5.032 3.947 2.1 4.026 2.182c3.419 3.584 6.602 5.62 6.602 5.62.106.061.187.113.252.158.07-.181.13-.37.18-.565.55-2.077-.078-4.44-1.454-6.394 3.183 1.995 5.07 5.742 4.284 8.878-.02.084-.043.168-.067.25l.028.035c1.571 2.036 1.14 4.194.943 3.787-.853-1.729-2.431-1.2-3.234-.85z"
     fill-rule="evenodd"
     fill="#EB4548" />
</svg>
